<?xml version="1.0" encoding="iso-8859-1"?>
<!-- Generator: Adobe Illustrator 18.0.0, SVG Export Plug-In . SVG Version: 6.00 Build 0)  -->
<!DOCTYPE svg PUBLIC "-//W3C//DTD SVG 1.1//EN" "http://www.w3.org/Graphics/SVG/1.1/DTD/svg11.dtd">
<svg version="1.1" id="Capa_1" xmlns="http://www.w3.org/2000/svg" xmlns:xlink="http://www.w3.org/1999/xlink" x="0px" y="0px"
	 viewBox="0 0 392.619 392.619" style="enable-background:new 0 0 392.619 392.619;" xml:space="preserve">
<g>
	<path d="M310.723,0.929H81.896C36.738,0.929,0,37.667,0,82.825v226.97c0,45.158,36.738,81.896,81.896,81.896h228.827
		c45.158,0,81.896-36.738,81.896-81.896V82.825C392.619,37.667,355.881,0.929,310.723,0.929z M362.619,309.794
		c0,28.616-23.28,51.896-51.896,51.896H81.896C53.28,361.69,30,338.41,30,309.794V82.825c0-28.616,23.28-51.896,51.896-51.896
		h228.827c28.616,0,51.896,23.28,51.896,51.896V309.794z"/>
	<path d="M263.825,96.94h-91.03c-8.284,0-15,6.716-15,15s6.716,15,15,15h26.102l-36.177,138.739h-33.925c-8.284,0-15,6.716-15,15
		s6.716,15,15,15h45.402c0.041,0,0.082,0.004,0.123,0.004c0.031,0,0.062-0.004,0.093-0.004h45.411c8.284,0,15-6.716,15-15
		s-6.716-15-15-15h-26.102L229.9,126.94h33.925c8.284,0,15-6.716,15-15S272.109,96.94,263.825,96.94z"/>
</g>
<g>
</g>
<g>
</g>
<g>
</g>
<g>
</g>
<g>
</g>
<g>
</g>
<g>
</g>
<g>
</g>
<g>
</g>
<g>
</g>
<g>
</g>
<g>
</g>
<g>
</g>
<g>
</g>
<g>
</g>
</svg>
