<?xml version="1.0" ?><!DOCTYPE svg  PUBLIC '-//W3C//DTD SVG 1.1//EN'  'http://www.w3.org/Graphics/SVG/1.1/DTD/svg11.dtd'><svg enable-background="new 0 0 60 46" height="46px" id="Layer_1" version="1.1" viewBox="0 0 60 46" width="60px" xml:space="preserve" xmlns="http://www.w3.org/2000/svg" xmlns:xlink="http://www.w3.org/1999/xlink"><g><rect fill="#231F20" height="5" width="48" x="12" y="21"/><rect fill="#231F20" height="5" width="48" x="12" y="2"/><rect fill="#231F20" height="5" width="48" x="12" y="40"/><path d="M5,40.269v-0.045c1-0.221,1.5-0.573,1.914-1.059c0.414-0.487,0.679-1.069,0.679-1.748   c0-0.788-0.292-1.407-0.936-1.856s-1.518-0.674-2.65-0.674c-0.784,0-1.47,0.085-2.078,0.255c-0.605,0.17-1.195,0.454-1.773,0.854   l1.229,1.976c0.749-0.47,1.473-0.703,2.172-0.703c0.375,0,0.673,0.069,0.895,0.209c0.223,0.141,0.333,0.219,0.333,0.508   c0,0.768-0.75,1.016-2.253,1.016H2v3h0.517c0.554,0,1.003-0.211,1.347-0.128c0.344,0.081,0.593,0.079,0.749,0.239   c0.155,0.162,0.232,0.331,0.232,0.63c0,0.39-0.148,0.645-0.445,0.826c-0.297,0.182-0.77,0.258-1.419,0.258   c-0.419,0-0.949-0.067-1.446-0.185C1.039,43.522,1,43.335,0,43.091v2.454c1,0.225,1.199,0.38,1.7,0.465   c0.502,0.084,1.083,0.127,1.672,0.127c1.431,0,2.569-0.292,3.375-0.876c0.805-0.584,1.1-1.385,1.1-2.402   C7.847,41.361,7,40.497,5,40.269z" fill="#231F20"/><path d="M4,25.953c1.095-1.089,1.944-1.826,2.316-2.215s0.64-0.76,0.864-1.112c0.225-0.352,0.375-0.71,0.483-1.074   c0.107-0.364,0.153-0.761,0.153-1.19c0-0.573-0.157-1.091-0.463-1.553c-0.308-0.461-0.741-0.817-1.298-1.067   c-0.556-0.25-1.189-0.374-1.898-0.374c-0.563,0-1.073,0.057-1.524,0.172c-0.452,0.115-0.87,0.281-1.254,0.498   c-0.384,0.217-0.859,0.577-1.422,1.082l1.625,1.901c0.443-0.384,0.842-0.674,1.193-0.872c0.353-0.197,0.701-0.296,1.045-0.296   c0.334,0,0.593,0.083,0.778,0.247s0.277,0.389,0.277,0.674c0,0.229-0.046,0.449-0.139,0.659c-0.092,0.209-0.256,0.46-0.49,0.752   c-0.234,0.292-0.772,0.837-1.536,1.635L0,26.522V28h8v-2H4V25.953z" fill="#231F20"/><path d="M3.026,3.929C3.301,3.684,3.694,3.449,3.88,3.225C3.85,3.809,4,4.453,4,5.156V11h2V0H4.006L0.249,3.064   l1.534,1.888L3.026,3.929z" fill="#231F20"/></g></svg>