<svg height="512pt" viewBox="-28 0 512 512" width="512pt" xmlns="http://www.w3.org/2000/svg"><path d="m451 256c0 123.160156-99.839844 223-223 223s-223-99.839844-223-223 99.839844-223 223-223 223 99.839844 223 223zm0 0" fill="#88e288"/><path d="m431 256c0 112.113281-90.886719 203-203 203s-203-90.886719-203-203 90.886719-203 203-203 203 90.886719 203 203zm0 0" fill="#6dcc6d"/><path d="m370.800781 256c0 78.867188-63.933593 142.800781-142.800781 142.800781s-142.800781-63.933593-142.800781-142.800781 63.933593-142.800781 142.800781-142.800781 142.800781 63.933593 142.800781 142.800781zm0 0" fill="#e9e9ea"/><path d="m198.199219 319.199219-51-51c-7.800781-7.800781-7.800781-20.398438 0-28.199219s20.402343-7.800781 28.199219 0l36.800781 36.800781 70.800781-70.800781c7.800781-7.800781 20.398438-7.800781 28.199219 0s7.800781 20.398438 0 28.199219l-84.800781 84.800781c-7.796876 8-20.398438 8-28.199219.199219zm0 0" fill="#6dcc6d"/><path d="m389.398438 18c-9-1.800781-15.796876-8.601562-17.597657-17.601562 0-.199219-.199219-.398438-.402343-.398438-.199219 0-.199219.199219-.398438.398438-1.800781 9-8.601562 15.800781-17.601562 17.601562-.199219 0-.398438.199219-.398438.398438 0 .203124.199219.203124.398438.402343 9 1.800781 15.800781 8.597657 17.601562 17.597657 0 .203124.199219.402343.398438.402343.203124 0 .203124-.199219.402343-.402343 1.800781-9 8.597657-15.796876 17.597657-17.597657.203124 0 .402343-.199219.203124-.402343 0-.398438-.203124-.398438-.203124-.398438zm0 0" fill="#60bae2"/><path d="m35.800781 455.398438h-17.402343c-2.796876 0-5-2.199219-5-5 0-2.796876 2.203124-5 5-5h17.402343c2.800781 0 5 2.203124 5 5 0 2.800781-2.402343 5-5 5zm0 0" fill="#6dcc6d"/><path d="m27 464c-2.800781 0-5-2.199219-5-5v-17.398438c0-2.800781 2.199219-5 5-5s5 2.199219 5 5v17.398438c0 2.800781-2.199219 5-5 5zm0 0" fill="#6dcc6d"/><path d="m85.199219 512c-1.398438 0-2.597657-.601562-3.597657-1.398438-.203124-.203124-.402343-.402343-.601562-.800781-.199219-.199219-.398438-.601562-.398438-.800781-.203124-.398438-.203124-.601562-.203124-1s-.199219-.601562 0-1c0-.398438 0-.601562 0-1s.203124-.601562.203124-1c.199219-.398438.199219-.601562.398438-.800781s.398438-.597657.601562-.800781c1.398438-1.398438 3.597657-1.796876 5.398438-1 .199219.203124.601562.203124.800781.402343s.597657.398438.800781.597657c.199219.203124.398438.402343.597657.800781.199219.199219.402343.601562.402343.800781.199219.199219.199219.601562.199219 1v1 1c0 .398438-.199219.601562-.199219 1-.203124.398438-.203124.601562-.402343.800781s-.398438.597657-.597657.800781c-.203124.199219-.402343.398438-.800781.597657-.199219.199219-.601562.402343-.800781.402343-.398438.199219-.601562.199219-1 .199219-.199219.199219-.398438.199219-.800781.199219zm0 0" fill="#fcd770"/><path d="m416.199219 63c-.398438 0-.597657 0-1 0-.398438 0-.597657-.199219-1-.199219-.398438-.199219-.597657-.199219-.800781-.402343-.199219-.199219-.597657-.398438-.796876-.597657-1-1-1.402343-2.199219-1.402343-3.601562 0-.398438 0-.597657.199219-1 0-.398438.203124-.597657.203124-1 .199219-.398438.199219-.597657.398438-.800781.199219-.199219.398438-.597657.601562-.796876.199219-.203124.398438-.402343.796876-.601562.203124-.199219.601562-.398438.800781-.398438 1.199219-.601562 2.601562-.601562 3.800781 0 .398438.199219.601562.199219.800781.398438.597657.398438 1 .800781 1.398438 1.398438.199219.203124.402343.601562.402343.800781.199219.402343.199219.601562.199219 1 0 .402343.199219.601562.199219 1 0 1.402343-.601562 2.601562-1.398438 3.601562-.203124.199219-.402343.398438-.800781.597657-.199219.203124-.601562.402343-.800781.402343-.398438.199219-.601562.199219-1 .199219 0 0-.398438 0-.800781 0zm0 0" fill="#f75c64"/><g fill="#231f20"><path d="m228 484c-126 0-228-102-228-228s102-228 228-228 228 102 228 228c-.199219 125.800781-102.199219 227.800781-228 228zm0-446c-120.398438 0-218 97.601562-218 218s97.601562 218 218 218 218-97.601562 218-218c-.199219-120.398438-97.601562-217.800781-218-218zm0 0"/><path d="m228 464c-114.800781 0-208-93.199219-208-208s93.199219-208 208-208 208 93.199219 208 208c-.199219 114.800781-93.199219 207.800781-208 208zm0-406c-109.398438 0-198 88.601562-198 198s88.601562 198 198 198 198-88.601562 198-198c-.199219-109.398438-88.601562-197.800781-198-198zm0 0"/><path d="m228 403.800781c-81.601562 0-147.800781-66.199219-147.800781-147.800781s66.199219-147.800781 147.800781-147.800781 147.800781 66.199219 147.800781 147.800781c-.199219 81.601562-66.199219 147.601562-147.800781 147.800781zm0-285.601562c-76 0-137.800781 61.800781-137.800781 137.800781s61.800781 137.800781 137.800781 137.800781 137.800781-61.601562 137.800781-137.800781c-.199219-76-61.800781-137.601562-137.800781-137.800781zm0 0"/><path d="m212.398438 330c-6.597657 0-13-2.601562-17.597657-7.398438l-51-51c-9.800781-9.800781-9.800781-25.601562-.199219-35.402343 9.796876-9.800781 25.597657-9.800781 35.398438-.199219 0 0 .199219.199219.199219.199219l33.199219 33.199219 67.203124-67.199219c9.796876-9.800781 25.597657-9.800781 35.398438-.199219 9.800781 9.800781 9.800781 25.601562.199219 35.398438 0 0-.199219.203124-.199219.203124l-85 85.199219c-4.601562 4.597657-11 7.199219-17.601562 7.199219zm-51-90.800781c-8.199219 0-15 6.800781-15 15 0 4 1.601562 7.800781 4.402343 10.601562l51 51c5.800781 5.800781 15.398438 5.800781 21.199219 0l84.800781-84.800781c5.800781-5.800781 5.800781-15.398438 0-21.199219s-15.402343-5.800781-21.199219 0l-70.800781 70.800781c-2 2-5.199219 2-7 0l-36.800781-37c-2.800781-2.800781-6.601562-4.402343-10.601562-4.402343zm0 0"/></g></svg>